<svg xmlns="http://www.w3.org/2000/svg" viewBox="0 0 340 110" width="340" height="110">
  <defs>
    <linearGradient id="g1" x1="0" y1="0" x2="1" y2="1">
      <stop offset="0" stop-color="#2f7bf6"/><stop offset="1" stop-color="#2fc4f0"/>
    </linearGradient>
    <linearGradient id="g2" x1="0" y1="0" x2="1" y2="1">
      <stop offset="0" stop-color="#3f8bff"/><stop offset="1" stop-color="#7c5cf0"/>
    </linearGradient>
  </defs>
  <rect x="2" y="7" width="96" height="96" rx="20" fill="#0c1220" stroke="#243050" stroke-width="1.5"/>
  <g transform="translate(0,5)">
    <path d="M16 20 h26 l8 8 v52 a4 4 0 0 1 -4 4 h-30 a4 4 0 0 1 -4 -4 v-56 a4 4 0 0 1 4 -4 z" fill="#f2f4f8"/>
    <path d="M42 20 l8 8 h-8 z" fill="#c6cdd9"/>
    <rect x="20" y="32" width="20" height="2.6" rx="1.3" fill="#8b93a3"/>
    <rect x="20" y="38" width="24" height="2.2" rx="1.1" fill="#c2c9d4"/>
    <rect x="20" y="43" width="22" height="2.2" rx="1.1" fill="#c2c9d4"/>
    <rect x="20" y="51" width="14" height="2.6" rx="1.3" fill="#8b93a3"/>
    <rect x="20" y="57" width="24" height="2.2" rx="1.1" fill="#c2c9d4"/>
    <rect x="20" y="62" width="18" height="2.2" rx="1.1" fill="#c2c9d4"/>
    <rect x="20" y="70" width="21" height="2.6" rx="1.3" fill="#8b93a3"/>
    <rect x="20" y="76" width="23" height="2.2" rx="1.1" fill="#c2c9d4"/>
    <rect x="52" y="26" width="4" height="4" rx="1" fill="#2f7bf6" opacity=".85"/>
    <rect x="57" y="34" width="3" height="3" rx="1" fill="#2fc4f0" opacity=".7"/>
    <rect x="53" y="44" width="3.5" height="3.5" rx="1" fill="#3f8bff" opacity=".8"/>
    <rect x="58" y="55" width="3" height="3" rx="1" fill="#7c5cf0" opacity=".7"/>
    <rect x="53" y="63" width="4" height="4" rx="1" fill="#2f7bf6" opacity=".85"/>
    <rect x="58" y="73" width="3" height="3" rx="1" fill="#2fc4f0" opacity=".7"/>
    <rect x="64" y="22" width="24" height="11" rx="3.5" fill="url(#g1)"/>
    <rect x="67" y="25.5" width="5" height="4" rx="1" fill="#eaf6ff"/><rect x="74.5" y="26.7" width="10" height="1.8" rx=".9" fill="#dceeff" opacity=".85"/>
    <rect x="64" y="38" width="24" height="11" rx="3.5" fill="url(#g1)" opacity=".92"/>
    <circle cx="69.5" cy="43.5" r="2.4" fill="#eaf6ff"/><rect x="74.5" y="42.7" width="10" height="1.8" rx=".9" fill="#dceeff" opacity=".85"/>
    <rect x="64" y="54" width="24" height="11" rx="3.5" fill="url(#g2)" opacity=".92"/>
    <path d="M69.5 56.8 a2.6 2.6 0 0 1 2.6 2.6 c0 2 -2.6 4 -2.6 4 s-2.6 -2 -2.6 -4 a2.6 2.6 0 0 1 2.6 -2.6 z" fill="#eaf6ff"/><rect x="74.5" y="58.7" width="10" height="1.8" rx=".9" fill="#dceeff" opacity=".85"/>
    <rect x="64" y="70" width="24" height="11" rx="3.5" fill="url(#g2)"/>
    <rect x="67" y="73.5" width="5.2" height="3.6" rx="1.4" fill="#eaf6ff"/><rect x="74.5" y="74.7" width="10" height="1.8" rx=".9" fill="#dceeff" opacity=".85"/>
  </g>
  <text x="114" y="52" font-family="-apple-system,'Segoe UI',Helvetica,Arial,sans-serif" font-size="40" font-weight="800" fill="#f2f4f8">Script</text>
  <text x="114" y="94" font-family="-apple-system,'Segoe UI',Helvetica,Arial,sans-serif" font-size="40" font-weight="800" fill="url(#g1)">Break</text>
</svg>
